<mxfile host="app.diagrams.net" modified="2024-03-06T05:20:47.870Z" agent="Mozilla/5.0 (Windows NT 10.0; Win64; x64) AppleWebKit/537.36 (KHTML, like Gecko) Chrome/122.0.0.0 Safari/537.36" version="24.0.2" etag="L-_X7lzfTB9I0CczUMoJ" type="github">
  <diagram name="第 1 页" id="65FCuox_Sd-uOo7_R2Wj">
    <mxGraphModel>
      <root>
        <mxCell id="0" />
        <mxCell id="1" parent="0" />
      </root>
    </mxGraphModel>
  </diagram>
</mxfile>
